<svg width="86" height="68" viewBox="0 0 86 68" fill="none" xmlns="http://www.w3.org/2000/svg">
<path d="M43 1.07379L23.5475 28.8444C27.6246 32.4795 33.896 35.5087 40.4456 36L40.9696 29.7941C38.0386 29.5322 35.2059 28.6643 32.6188 27.338L43 12.5194L53.3813 27.338C50.7941 28.6643 47.9614 29.5322 45.0304 29.7941L45.5544 36C52.1041 35.5087 58.3754 32.4795 62.4526 28.8444L43 1.07379Z" fill="#24B2B2"/>
<path d="M13.464 56.9435C13.464 54.6775 12.188 53.5995 9.284 53.1595C8.866 53.0935 7.172 52.8515 6.468 52.7415C4.752 52.4775 4.378 52.2795 4.378 51.7515C4.378 51.1795 4.95 50.8715 6.886 50.8715C8.558 50.8715 9.196 51.1575 9.438 51.4875C9.548 51.6415 9.592 52.0155 9.592 52.1475H13.002C13.002 51.9055 12.936 51.1575 12.782 50.6955C12.166 48.9575 10.076 48.0995 6.754 48.0995C2.86 48.0995 0.924 49.5075 0.924 51.6635C0.924 53.9735 2.2 55.1395 4.862 55.5135C5.588 55.6235 7.04 55.8435 7.502 55.9095C9.284 56.1735 10.01 56.3275 10.01 57.0095C10.01 57.7135 9.394 58.0655 7.392 58.0655C5.478 58.0655 4.554 57.9115 4.334 57.3395C4.246 57.0975 4.224 56.8775 4.224 56.7235H0.726C0.726 57.1195 0.748 57.4495 0.858 57.9335C1.364 59.9135 3.3 60.7275 7.392 60.7275C11.572 60.7275 13.464 59.4515 13.464 56.9435ZM29.2502 54.2375C29.2502 52.3675 28.6782 51.0695 27.8422 49.9915C26.9622 48.8475 25.2022 48.1435 23.4202 48.1435C21.0882 48.1435 19.4382 49.1115 18.9982 50.1235L18.8882 48.4075H15.4562V64.3135H18.9982V59.0115C19.8782 60.1555 21.5722 60.5955 23.3762 60.5955C25.1582 60.5955 26.9402 59.8475 27.8422 58.7915C28.7662 57.7135 29.2502 56.2395 29.2502 54.2375ZM25.6642 54.4575C25.6642 55.2715 25.4882 55.9315 25.1142 56.4595C24.5642 57.2295 23.5962 57.6695 22.2102 57.6695C21.0882 57.6695 20.2522 57.3395 19.7022 56.7675C19.1522 56.2175 18.8882 55.4255 18.8882 54.4575C18.8882 53.4235 19.2402 52.5435 19.9442 51.9495C20.4942 51.4875 21.2642 51.2235 22.2102 51.2235C23.3982 51.2235 24.2342 51.5315 24.7842 52.0375C25.4002 52.6315 25.6642 53.4675 25.6642 54.4575ZM40.8853 48.3635C40.4013 48.2315 39.7193 48.1215 38.7073 48.1215C36.9033 48.1215 34.9453 49.1115 34.6593 50.3655V48.4075H31.1613V60.5075H34.7473V54.6995C34.7473 52.5875 36.1113 51.3775 37.9813 51.3775C39.2353 51.3775 40.0493 51.4875 40.8853 51.7515V48.3635ZM54.7192 60.5075H51.3092L51.2212 58.8135C50.4072 60.1775 48.6032 60.7055 46.8212 60.7055C44.0712 60.7055 42.2232 59.6715 42.2232 56.7235C42.2232 49.7055 42.2012 48.4955 42.1132 48.4075C42.1132 48.4075 45.7652 48.4075 45.6992 48.4075C45.7652 48.4075 45.7872 53.5995 45.7872 55.8215C45.7872 57.4275 46.8652 57.9555 48.2512 57.9555C50.0112 57.9555 51.1112 57.0755 51.1112 55.6455V48.4075H54.6532C54.6532 48.4075 54.6532 56.5035 54.6532 58.6155C54.6532 59.7155 54.6972 60.3975 54.7192 60.5075ZM70.1578 53.2475C70.1578 52.6095 70.0478 51.8835 69.7398 51.1795C69.0358 49.5735 67.2758 48.1215 63.4258 48.1215C61.3798 48.1215 59.4658 48.6495 58.2118 49.8815C57.1558 50.9155 56.5618 52.4335 56.5618 54.4135C56.5618 56.5695 57.1778 58.1975 58.4318 59.2535C59.6198 60.2435 61.3358 60.7055 63.5578 60.7055C65.9998 60.7055 67.6498 60.0895 68.6618 59.1655C69.7398 58.2195 70.1358 56.9435 70.1358 55.8215H66.7478C66.7478 56.1735 66.6378 56.6355 66.2638 57.0095C65.8018 57.4495 64.9658 57.7795 63.6238 57.7795C62.3258 57.7795 61.4238 57.5375 60.8738 56.9875C60.2798 56.4375 60.1038 55.5575 60.1038 54.4355C60.1038 53.4015 60.3458 52.4995 60.9178 51.9275C61.4898 51.3555 62.3698 51.1135 63.5358 51.1135C64.8778 51.1135 65.7358 51.5095 66.1978 52.0155C66.5498 52.3895 66.7038 52.8295 66.7038 53.2475H70.1578ZM84.9831 56.5695H81.5291C81.4631 56.8335 81.1551 57.2295 80.5171 57.5155C80.0111 57.7355 79.2851 57.9115 78.2951 57.9115C76.9751 57.9115 75.9851 57.5595 75.4791 57.0095C75.0611 56.5475 74.8191 56.1295 74.8191 55.5795H85.0711C85.2691 53.7535 84.9391 52.0155 84.0371 50.6955C82.9591 49.1335 81.0671 48.1215 78.2951 48.1215C75.6551 48.1215 73.5651 49.1115 72.3991 50.8055C71.7171 51.7735 71.3431 53.0055 71.3431 54.3915C71.3431 55.9095 71.6731 57.1195 72.2671 58.0655C73.4331 59.9135 75.6111 60.7055 78.2951 60.7055C80.2531 60.7055 81.7271 60.2875 82.7831 59.6055C83.9931 58.8355 84.6971 57.7355 84.9831 56.5695ZM81.5731 53.2695H74.7971C74.7971 52.9175 75.1271 52.1915 75.5451 51.8175C76.1391 51.2895 77.0631 50.9595 78.3171 50.9595C79.6371 50.9595 80.4731 51.3775 80.9791 51.8835C81.4191 52.3455 81.5731 52.9175 81.5731 53.2695Z" fill="#2C323D"/>
</svg>
