<svg width="234" height="132" viewBox="0 0 234 132" fill="none" xmlns="http://www.w3.org/2000/svg">
<path d="M98.1566 123.608L95.5316 116.318H96.8066L98.1866 120.458C98.2966 120.818 98.4066 121.178 98.5166 121.538C98.6366 121.898 98.7516 122.253 98.8616 122.603H98.9216C99.0316 122.253 99.1416 121.898 99.2516 121.538C99.3616 121.178 99.4716 120.818 99.5816 120.458L100.962 116.318H102.177L99.5966 123.608H98.1566ZM106.104 123.788C105.654 123.788 105.234 123.723 104.844 123.593C104.464 123.463 104.134 123.283 103.854 123.053C103.584 122.813 103.369 122.533 103.209 122.213C103.049 121.893 102.969 121.543 102.969 121.163C102.969 120.853 103.019 120.568 103.119 120.308C103.229 120.038 103.364 119.798 103.524 119.588C103.694 119.368 103.884 119.178 104.094 119.018C104.314 118.848 104.539 118.703 104.769 118.583V118.523C104.419 118.273 104.109 117.973 103.839 117.623C103.569 117.263 103.434 116.828 103.434 116.318C103.434 115.948 103.504 115.613 103.644 115.313C103.784 115.013 103.974 114.758 104.214 114.548C104.454 114.328 104.739 114.158 105.069 114.038C105.399 113.918 105.759 113.858 106.149 113.858C106.569 113.858 106.944 113.923 107.274 114.053C107.604 114.173 107.884 114.348 108.114 114.578C108.354 114.798 108.534 115.068 108.654 115.388C108.784 115.698 108.849 116.038 108.849 116.408C108.849 116.658 108.804 116.898 108.714 117.128C108.634 117.358 108.529 117.573 108.399 117.773C108.279 117.973 108.139 118.153 107.979 118.313C107.829 118.473 107.679 118.608 107.529 118.718V118.778C107.739 118.898 107.944 119.038 108.144 119.198C108.344 119.348 108.519 119.523 108.669 119.723C108.829 119.913 108.954 120.133 109.044 120.383C109.144 120.633 109.194 120.918 109.194 121.238C109.194 121.598 109.119 121.933 108.969 122.243C108.819 122.553 108.609 122.823 108.339 123.053C108.069 123.283 107.744 123.463 107.364 123.593C106.984 123.723 106.564 123.788 106.104 123.788ZM106.779 118.388C107.099 118.098 107.344 117.793 107.514 117.473C107.694 117.153 107.784 116.818 107.784 116.468C107.784 115.988 107.639 115.588 107.349 115.268C107.059 114.938 106.649 114.773 106.119 114.773C105.669 114.773 105.299 114.913 105.009 115.193C104.719 115.473 104.574 115.848 104.574 116.318C104.574 116.608 104.634 116.858 104.754 117.068C104.874 117.268 105.034 117.448 105.234 117.608C105.444 117.768 105.679 117.913 105.939 118.043C106.209 118.163 106.489 118.278 106.779 118.388ZM106.134 122.873C106.694 122.873 107.144 122.718 107.484 122.408C107.834 122.098 108.009 121.693 108.009 121.193C108.009 120.883 107.939 120.618 107.799 120.398C107.659 120.178 107.469 119.988 107.229 119.828C106.989 119.658 106.709 119.508 106.389 119.378C106.079 119.238 105.754 119.098 105.414 118.958C105.034 119.218 104.714 119.523 104.454 119.873C104.204 120.213 104.079 120.603 104.079 121.043C104.079 121.313 104.129 121.558 104.229 121.778C104.339 121.998 104.484 122.193 104.664 122.363C104.854 122.523 105.074 122.648 105.324 122.738C105.574 122.828 105.844 122.873 106.134 122.873ZM111.685 123.788C111.435 123.788 111.22 123.703 111.04 123.533C110.87 123.353 110.785 123.128 110.785 122.858C110.785 122.568 110.87 122.338 111.04 122.168C111.22 121.988 111.435 121.898 111.685 121.898C111.925 121.898 112.13 121.988 112.3 122.168C112.48 122.338 112.57 122.568 112.57 122.858C112.57 123.128 112.48 123.353 112.3 123.533C112.13 123.703 111.925 123.788 111.685 123.788ZM114.73 123.608V122.588H116.92V115.538H115.18V114.743C115.62 114.663 116 114.568 116.32 114.458C116.65 114.338 116.945 114.198 117.205 114.038H118.15V122.588H120.13V123.608H114.73ZM122.186 123.608V122.588H124.376V115.538H122.636V114.743C123.076 114.663 123.456 114.568 123.776 114.458C124.106 114.338 124.401 114.198 124.661 114.038H125.606V122.588H127.586V123.608H122.186ZM130.332 123.788C130.082 123.788 129.867 123.703 129.687 123.533C129.517 123.353 129.432 123.128 129.432 122.858C129.432 122.568 129.517 122.338 129.687 122.168C129.867 121.988 130.082 121.898 130.332 121.898C130.572 121.898 130.777 121.988 130.947 122.168C131.127 122.338 131.217 122.568 131.217 122.858C131.217 123.128 131.127 123.353 130.947 123.533C130.777 123.703 130.572 123.788 130.332 123.788ZM135.927 123.788C134.957 123.788 134.202 123.358 133.662 122.498C133.122 121.638 132.852 120.403 132.852 118.793C132.852 117.183 133.122 115.958 133.662 115.118C134.202 114.278 134.957 113.858 135.927 113.858C136.887 113.858 137.637 114.278 138.177 115.118C138.717 115.958 138.987 117.183 138.987 118.793C138.987 120.403 138.717 121.638 138.177 122.498C137.637 123.358 136.887 123.788 135.927 123.788ZM135.927 122.798C136.207 122.798 136.457 122.723 136.677 122.573C136.907 122.413 137.102 122.173 137.262 121.853C137.432 121.523 137.562 121.108 137.652 120.608C137.742 120.098 137.787 119.493 137.787 118.793C137.787 118.093 137.742 117.493 137.652 116.993C137.562 116.493 137.432 116.088 137.262 115.778C137.102 115.458 136.907 115.223 136.677 115.073C136.457 114.923 136.207 114.848 135.927 114.848C135.647 114.848 135.392 114.923 135.162 115.073C134.932 115.223 134.732 115.458 134.562 115.778C134.402 116.088 134.277 116.493 134.187 116.993C134.097 117.493 134.052 118.093 134.052 118.793C134.052 120.193 134.222 121.213 134.562 121.853C134.912 122.483 135.367 122.798 135.927 122.798Z" fill="#34495E"/>
<path d="M117.844 0.327223C139.517 26.2718 152.236 59.1448 152.236 59.1448C139.929 57.2248 127.513 55.5339 121.526 54.7378L120.271 44.6739C123.477 45.102 129.352 45.8954 134.783 46.6746C134.783 46.6746 129.151 31.5337 117.844 16.9791C106.537 31.5337 100.905 46.6746 100.905 46.6746C106.336 45.8954 112.211 45.102 115.417 44.6739L114.162 54.7378C108.175 55.5339 95.759 57.2248 83.4518 59.1448C83.4518 59.1448 96.1707 26.2718 117.844 0.327223Z" fill="#20BC93"/>
<path d="M88.1043 90.3163C88.1043 95.1789 91.6072 99.2701 97.2453 99.2701C101.482 99.2701 104.084 96.8221 104.084 96.8221L102.45 93.7704C102.45 93.7704 100.281 95.6484 97.5456 95.6484C95.0101 95.6484 92.7082 94.1058 92.4413 91.1212H104.184C104.184 91.1212 104.285 89.981 104.285 89.478C104.285 84.9508 101.649 81.3625 96.7449 81.3625C91.674 81.3625 88.1043 85.0514 88.1043 90.3163ZM92.5747 88.2036C92.9751 85.9903 94.4763 84.6489 96.6448 84.6489C98.513 84.6489 99.9476 85.8897 100.014 88.2036H92.5747Z" fill="black"/>
<path d="M69.9472 90.3163C69.9472 95.2795 73.5503 99.2701 79.1883 99.2701C83.7588 99.2701 86.1942 96.4867 86.1942 96.4867L84.5595 93.4686C84.5595 93.4686 82.4244 95.6484 79.5553 95.6484C76.3193 95.6484 74.2508 93.1668 74.2508 90.2828C74.2508 87.3653 76.2859 84.9843 79.4218 84.9843C82.0908 84.9843 83.8589 86.8287 83.8589 86.8287L85.7271 83.9112C85.7271 83.9112 83.6254 81.3625 79.1883 81.3625C73.5503 81.3625 69.9472 85.4538 69.9472 90.3163Z" fill="black"/>
<path d="M50.7414 92.7309C50.7414 97.3923 53.01 99.2367 56.6464 99.2367C59.5488 99.2367 61.7173 97.4593 62.5513 95.682H62.6181C62.6181 95.682 62.5513 97.4674 62.5513 98.1381L66.6214 99.2535V81.3288H62.3845V89.5787C62.3845 92.6303 60.6831 95.3467 57.6139 95.3467C55.5121 95.3467 54.9783 93.9382 54.9783 91.859V81.3288H50.7414V92.7309Z" fill="black"/>
<path d="M37.1737 99.2869H41.4106V92.1101C41.4106 91.1041 41.5107 90.1651 41.7775 89.3267C42.5782 86.7781 44.6133 85.7385 46.4148 85.7385C46.9819 85.7385 47.4156 85.8056 47.4156 85.8056V81.6137C47.4156 81.6137 47.0486 81.5467 46.6483 81.5467C44.0461 81.5467 42.0111 83.4917 41.2438 85.9397H41.177C41.177 85.9397 41.2438 83.0579 41.2438 82.4207L37.1737 81.3116V99.2869Z" fill="black"/>
<path d="M16.967 105.608L21.2039 104.468V98.4319C21.2039 97.56 21.1372 96.9564 21.1372 96.9564H21.2039C21.2039 96.9564 22.7052 99.3038 26.0747 99.3038C30.5451 99.3038 33.8479 95.7827 33.8479 90.35C33.8479 85.0515 30.9121 81.3962 26.3082 81.3962C22.3048 81.3962 20.837 84.2131 20.837 84.2131H20.7702C20.7702 84.2131 20.837 83.0155 20.837 82.3784L16.967 81.3288V105.608ZM21.0705 90.4506C21.0705 86.6612 23.1389 85.0515 25.3407 85.0515C27.8428 85.0515 29.5776 87.1642 29.5776 90.4171C29.5776 93.8041 27.6427 95.7156 25.3074 95.7156C22.505 95.7156 21.0705 93.0999 21.0705 90.4506Z" fill="black"/>
<path d="M0.50563 96.755C0.50563 96.755 2.87429 99.2701 7.11118 99.2701C11.1479 99.2701 13.6166 96.9898 13.6166 94.1393C13.6166 88.6396 5.34303 88.9414 5.34303 86.5269C5.34303 85.4538 6.41059 84.9843 7.51152 84.9843C10.1137 84.9843 11.6817 86.4598 11.6817 86.4598L13.6412 83.2862C13.6412 83.2862 11.3814 81.3625 7.54488 81.3625C3.87513 81.3625 1.03941 83.2069 1.03941 86.3928C1.03941 91.8925 9.31303 91.5571 9.31303 94.1058C9.31303 95.1118 8.27883 95.6484 7.07782 95.6484C4.30883 95.6484 2.37787 93.7396 2.37787 93.7396L0.50563 96.755Z" fill="black"/>
<path d="M115.16 97.1508C115.16 97.1508 117.4 99.7058 121.67 99.7058C125.205 99.7058 127.69 97.6408 127.69 94.7708C127.69 88.9608 118.205 90.0108 118.205 86.1258C118.205 84.1658 119.92 83.3958 121.705 83.3958C124.61 83.3958 126.115 85.0058 126.115 85.0058L127.2 83.1858C127.2 83.1858 125.485 81.2608 121.775 81.2608C118.59 81.2608 115.755 82.9758 115.755 86.1258C115.755 91.8658 125.24 90.9208 125.24 94.7708C125.24 96.6258 123.595 97.5708 121.705 97.5708C118.415 97.5708 116.455 95.4358 116.455 95.4358L115.16 97.1508Z" fill="black"/>
<path d="M132.112 99.2858H134.492V90.4658H137.327L143.207 99.2858H146.042L139.322 89.4158V89.3458L145.447 81.6808H142.577L137.292 88.4008H134.492V74.6808H132.112V99.2858Z" fill="black"/>
<path d="M149.611 77.6558H152.096V74.6808H149.611V77.6558ZM149.681 99.2858H152.061V81.6808H149.681V99.2858Z" fill="black"/>
<path d="M157.64 95.1208C157.64 98.9708 160.23 99.4258 161.7 99.4258C162.155 99.4258 162.575 99.3558 162.575 99.3558V97.2208C162.575 97.2208 162.295 97.2558 161.98 97.2558C161.07 97.2558 160.02 96.9058 160.02 94.5958V74.6808H157.64V95.1208Z" fill="black"/>
<path d="M166.288 95.1208C166.288 98.9708 168.878 99.4258 170.348 99.4258C170.803 99.4258 171.223 99.3558 171.223 99.3558V97.2208C171.223 97.2208 170.943 97.2558 170.628 97.2558C169.718 97.2558 168.668 96.9058 168.668 94.5958V74.6808H166.288V95.1208Z" fill="black"/>
<path d="M173.675 97.1508C173.675 97.1508 175.915 99.7058 180.185 99.7058C183.72 99.7058 186.205 97.6408 186.205 94.7708C186.205 88.9608 176.72 90.0108 176.72 86.1258C176.72 84.1658 178.435 83.3958 180.22 83.3958C183.125 83.3958 184.63 85.0058 184.63 85.0058L185.715 83.1858C185.715 83.1858 184 81.2608 180.29 81.2608C177.105 81.2608 174.27 82.9758 174.27 86.1258C174.27 91.8658 183.755 90.9208 183.755 94.7708C183.755 96.6258 182.11 97.5708 180.22 97.5708C176.93 97.5708 174.97 95.4358 174.97 95.4358L173.675 97.1508Z" fill="black"/>
<path d="M200.027 99.2858H202.407V90.4658H205.242L211.122 99.2858H213.957L207.237 89.4158V89.3458L213.362 81.6808H210.492L205.207 88.4008H202.407V74.6808H200.027V99.2858Z" fill="black"/>
<path d="M217.526 77.6558H220.011V74.6808H217.526V77.6558ZM217.596 99.2858H219.976V81.6808H217.596V99.2858Z" fill="black"/>
<path d="M226.395 92.8808C226.395 98.7608 230.49 99.4258 232.52 99.4258C233.15 99.4258 233.535 99.3558 233.535 99.3558V97.2208C233.535 97.2208 233.22 97.2908 232.73 97.2908C231.4 97.2908 228.775 96.7658 228.775 92.6358V83.8858H233.185V81.8908H228.775V76.8158H226.43V81.8908H224.085V83.8858H226.395V92.8808Z" fill="black"/>
</svg>
