<?xml version="1.0" encoding="utf-8"?>
<!-- Generator: Adobe Illustrator 24.0.1, SVG Export Plug-In . SVG Version: 6.00 Build 0)  -->
<svg version="1.1" id="Layer_1" xmlns="http://www.w3.org/2000/svg" xmlns:xlink="http://www.w3.org/1999/xlink" x="0px" y="0px"
	 viewBox="0 0 234 111" style="enable-background:new 0 0 234 111;" xml:space="preserve">
<style type="text/css">
	.st0{fill:#24B2B2;}
</style>
<path d="M88.1,90.3c0,4.9,3.5,9,9.1,9c4.2,0,6.8-2.4,6.8-2.4l-1.6-3.1c0,0-2.2,1.9-4.9,1.9c-2.5,0-4.8-1.5-5.1-4.5h11.7
	c0,0,0.1-1.1,0.1-1.6c0-4.5-2.6-8.1-7.5-8.1C91.7,81.4,88.1,85.1,88.1,90.3z M92.6,88.2c0.4-2.2,1.9-3.6,4.1-3.6
	c1.9,0,3.3,1.2,3.4,3.6H92.6z"/>
<path d="M69.9,90.3c0,5,3.6,9,9.2,9c4.6,0,7-2.8,7-2.8l-1.6-3c0,0-2.1,2.2-5,2.2c-3.2,0-5.3-2.5-5.3-5.4c0-2.9,2-5.3,5.2-5.3
	c2.7,0,4.4,1.8,4.4,1.8l1.9-2.9c0,0-2.1-2.5-6.5-2.5C73.6,81.4,69.9,85.5,69.9,90.3z"/>
<path d="M50.7,92.7c0,4.7,2.3,6.5,5.9,6.5c2.9,0,5.1-1.8,5.9-3.6h0.1c0,0-0.1,1.8-0.1,2.5l4.1,1.1V81.3h-4.2v8.2
	c0,3.1-1.7,5.8-4.8,5.8c-2.1,0-2.6-1.4-2.6-3.5V81.3h-4.2V92.7z"/>
<path d="M37.2,99.3h4.2v-7.2c0-1,0.1-1.9,0.4-2.8c0.8-2.5,2.8-3.6,4.6-3.6c0.6,0,1,0.1,1,0.1v-4.2c0,0-0.4-0.1-0.8-0.1
	c-2.6,0-4.6,1.9-5.4,4.4h-0.1c0,0,0.1-2.9,0.1-3.5l-4.1-1.1V99.3z"/>
<path d="M17,105.6l4.2-1.1v-6c0-0.9-0.1-1.5-0.1-1.5h0.1c0,0,1.5,2.3,4.9,2.3c4.5,0,7.8-3.5,7.8-9c0-5.3-2.9-9-7.5-9
	c-4,0-5.5,2.8-5.5,2.8h-0.1c0,0,0.1-1.2,0.1-1.8l-3.9-1V105.6z M21.1,90.5c0-3.8,2.1-5.4,4.3-5.4c2.5,0,4.2,2.1,4.2,5.4
	c0,3.4-1.9,5.3-4.3,5.3C22.5,95.7,21.1,93.1,21.1,90.5z"/>
<path d="M0.5,96.8c0,0,2.4,2.5,6.6,2.5c4,0,6.5-2.3,6.5-5.1c0-5.5-8.3-5.2-8.3-7.6c0-1.1,1.1-1.5,2.2-1.5c2.6,0,4.2,1.5,4.2,1.5
	l2-3.2c0,0-2.3-1.9-6.1-1.9c-3.7,0-6.5,1.8-6.5,5c0,5.5,8.3,5.2,8.3,7.7c0,1-1,1.5-2.2,1.5c-2.8,0-4.7-1.9-4.7-1.9L0.5,96.8z"/>
<path d="M115.2,97.2c0,0,2.2,2.6,6.5,2.6c3.5,0,6-2.1,6-4.9c0-5.8-9.5-4.8-9.5-8.6c0-2,1.7-2.7,3.5-2.7c2.9,0,4.4,1.6,4.4,1.6
	l1.1-1.8c0,0-1.7-1.9-5.4-1.9c-3.2,0-6,1.7-6,4.9c0,5.7,9.5,4.8,9.5,8.6c0,1.9-1.6,2.8-3.5,2.8c-3.3,0-5.2-2.1-5.2-2.1L115.2,97.2z"
	/>
<path d="M132.1,99.3h2.4v-8.8h2.8l5.9,8.8h2.8l-6.7-9.9v-0.1l6.1-7.7h-2.9l-5.3,6.7h-2.8V74.7h-2.4V99.3z"/>
<path d="M149.6,77.7h2.5v-3h-2.5V77.7z M149.7,99.3h2.4V81.7h-2.4V99.3z"/>
<path d="M157.6,95.1c0,3.9,2.6,4.3,4.1,4.3c0.5,0,0.9-0.1,0.9-0.1v-2.1c0,0-0.3,0-0.6,0c-0.9,0-2-0.3-2-2.7V74.7h-2.4V95.1z"/>
<path d="M166.3,95.1c0,3.9,2.6,4.3,4.1,4.3c0.5,0,0.9-0.1,0.9-0.1v-2.1c0,0-0.3,0-0.6,0c-0.9,0-2-0.3-2-2.7V74.7h-2.4V95.1z"/>
<path d="M173.7,97.2c0,0,2.2,2.6,6.5,2.6c3.5,0,6-2.1,6-4.9c0-5.8-9.5-4.8-9.5-8.6c0-2,1.7-2.7,3.5-2.7c2.9,0,4.4,1.6,4.4,1.6
	l1.1-1.8c0,0-1.7-1.9-5.4-1.9c-3.2,0-6,1.7-6,4.9c0,5.7,9.5,4.8,9.5,8.6c0,1.9-1.6,2.8-3.5,2.8c-3.3,0-5.2-2.1-5.2-2.1L173.7,97.2z"
	/>
<path d="M200,99.3h2.4v-8.8h2.8l5.9,8.8h2.8l-6.7-9.9v-0.1l6.1-7.7h-2.9l-5.3,6.7h-2.8V74.7H200V99.3z"/>
<path d="M217.5,77.7h2.5v-3h-2.5V77.7z M217.6,99.3h2.4V81.7h-2.4V99.3z"/>
<path d="M226.4,92.9c0,5.9,4.1,6.5,6.1,6.5c0.6,0,1-0.1,1-0.1v-2.1c0,0-0.3,0.1-0.8,0.1c-1.3,0-4-0.5-4-4.7v-8.8h4.4v-2h-4.4v-5.1
	h-2.3v5.1h-2.3v2h2.3V92.9z"/>
<path class="st0" d="M117.4-1L83.9,46.9c7,6.3,17.8,11.5,29.1,12.3l0.9-10.7c-5-0.5-9.9-1.9-14.4-4.2l17.9-25.5l17.9,25.5
	c-4.5,2.3-9.3,3.8-14.4,4.2l0.9,10.7c11.3-0.8,22.1-6.1,29.1-12.3L117.4-1z"/>
</svg>
