<?xml version="1.0" encoding="utf-8"?>
<!-- Generator: Adobe Illustrator 24.1.0, SVG Export Plug-In . SVG Version: 6.00 Build 0)  -->
<svg version="1.1" id="Layer_1" xmlns="http://www.w3.org/2000/svg" xmlns:xlink="http://www.w3.org/1999/xlink" x="0px" y="0px"
	 viewBox="0 0 311.5 47" style="enable-background:new 0 0 311.5 47;" xml:space="preserve">
<style type="text/css">
	.st0{fill:#FFFFFF;}
</style>
<g>
	<path d="M157.1,27.4c0,4.9,3.5,9,9.1,9c4.2,0,6.8-2.4,6.8-2.4l-1.6-3.1c0,0-2.2,1.9-4.9,1.9c-2.5,0-4.8-1.5-5.1-4.5h11.7
		c0,0,0.1-1.1,0.1-1.6c0-4.5-2.6-8.1-7.5-8.1C160.7,18.5,157.1,22.2,157.1,27.4z M161.6,25.3c0.4-2.2,1.9-3.6,4.1-3.6
		c1.9,0,3.3,1.2,3.4,3.6H161.6z"/>
	<path d="M138.9,27.4c0,5,3.6,9,9.2,9c4.6,0,7-2.8,7-2.8l-1.6-3c0,0-2.1,2.2-5,2.2c-3.2,0-5.3-2.5-5.3-5.4s2-5.3,5.2-5.3
		c2.7,0,4.4,1.8,4.4,1.8l1.9-2.9c0,0-2.1-2.5-6.5-2.5C142.6,18.5,138.9,22.6,138.9,27.4z"/>
	<path d="M119.7,29.8c0,4.7,2.3,6.5,5.9,6.5c2.9,0,5.1-1.8,5.9-3.6h0.1c0,0-0.1,1.8-0.1,2.5l4.1,1.1V18.4h-4.2v8.2
		c0,3.1-1.7,5.8-4.8,5.8c-2.1,0-2.6-1.4-2.6-3.5V18.4h-4.2v11.4H119.7z"/>
	<path d="M106.2,36.4h4.2v-7.2c0-1,0.1-1.9,0.4-2.8c0.8-2.5,2.8-3.6,4.6-3.6c0.6,0,1,0.1,1,0.1v-4.2c0,0-0.4-0.1-0.8-0.1
		c-2.6,0-4.6,1.9-5.4,4.4h-0.1c0,0,0.1-2.9,0.1-3.5l-4.1-1.1L106.2,36.4L106.2,36.4z"/>
	<path d="M86,42.7l4.2-1.1v-6c0-0.9-0.1-1.5-0.1-1.5h0.1c0,0,1.5,2.3,4.9,2.3c4.5,0,7.8-3.5,7.8-9c0-5.3-2.9-9-7.5-9
		c-4,0-5.5,2.8-5.5,2.8h-0.1c0,0,0.1-1.2,0.1-1.8l-3.9-1C86,18.4,86,42.7,86,42.7z M90.1,27.6c0-3.8,2.1-5.4,4.3-5.4
		c2.5,0,4.2,2.1,4.2,5.4c0,3.4-1.9,5.3-4.3,5.3C91.5,32.8,90.1,30.2,90.1,27.6z"/>
	<path d="M69.5,33.9c0,0,2.4,2.5,6.6,2.5c4,0,6.5-2.3,6.5-5.1c0-5.5-8.3-5.2-8.3-7.6c0-1.1,1.1-1.5,2.2-1.5c2.6,0,4.2,1.5,4.2,1.5
		l2-3.2c0,0-2.3-1.9-6.1-1.9c-3.7,0-6.5,1.8-6.5,5c0,5.5,8.3,5.2,8.3,7.7c0,1-1,1.5-2.2,1.5c-2.8,0-4.7-1.9-4.7-1.9L69.5,33.9z"/>
	<path d="M184.2,34.3c0,0,2.2,2.6,6.5,2.6c3.5,0,6-2.1,6-4.9c0-5.8-9.5-4.8-9.5-8.6c0-2,1.7-2.7,3.5-2.7c2.9,0,4.4,1.6,4.4,1.6
		l1.1-1.8c0,0-1.7-1.9-5.4-1.9c-3.2,0-6,1.7-6,4.9c0,5.7,9.5,4.8,9.5,8.6c0,1.9-1.6,2.8-3.5,2.8c-3.3,0-5.2-2.1-5.2-2.1L184.2,34.3z
		"/>
	<path d="M201.1,36.4h2.4v-8.8h2.8l5.9,8.8h2.8l-6.7-9.9v-0.1l6.1-7.7h-2.9l-5.3,6.7h-2.8V11.8H201L201.1,36.4L201.1,36.4z"/>
	<path d="M218.6,14.8h2.5v-3h-2.5V14.8z M218.7,36.4h2.4V18.8h-2.4V36.4z"/>
	<path d="M226.6,32.2c0,3.9,2.6,4.3,4.1,4.3c0.5,0,0.9-0.1,0.9-0.1v-2.1c0,0-0.3,0-0.6,0c-0.9,0-2-0.3-2-2.7V11.8h-2.4V32.2z"/>
	<path d="M235.3,32.2c0,3.9,2.6,4.3,4.1,4.3c0.5,0,0.9-0.1,0.9-0.1v-2.1c0,0-0.3,0-0.6,0c-0.9,0-2-0.3-2-2.7V11.8h-2.4V32.2z"/>
	<path d="M242.7,34.3c0,0,2.2,2.6,6.5,2.6c3.5,0,6-2.1,6-4.9c0-5.8-9.5-4.8-9.5-8.6c0-2,1.7-2.7,3.5-2.7c2.9,0,4.4,1.6,4.4,1.6
		l1.1-1.8c0,0-1.7-1.9-5.4-1.9c-3.2,0-6,1.7-6,4.9c0,5.7,9.5,4.8,9.5,8.6c0,1.9-1.6,2.8-3.5,2.8c-3.3,0-5.2-2.1-5.2-2.1L242.7,34.3z
		"/>
	<path d="M269,36.4h2.4v-8.8h2.8l5.9,8.8h2.8l-6.7-9.9v-0.1l6.1-7.7h-2.9l-5.3,6.7h-2.8V11.8H269V36.4z"/>
	<path d="M286.5,14.8h2.5v-3h-2.5V14.8z M286.6,36.4h2.4V18.8h-2.4V36.4z"/>
	<path d="M295.4,30c0,5.9,4.1,6.5,6.1,6.5c0.6,0,1-0.1,1-0.1v-2.1c0,0-0.3,0.1-0.8,0.1c-1.3,0-4-0.5-4-4.7v-8.8h4.4v-2h-4.4v-5.1
		h-2.3v5.1h-2.3v2h2.3V30z"/>
</g>
<path class="st0" d="M30.4,4.3L9,34.8c4.5,4,11.4,7.3,18.6,7.8l0.6-6.8c-3.2-0.3-6.3-1.2-9.2-2.7l11.4-16.3l11.4,16.3
	c-2.9,1.5-5.9,2.4-9.2,2.7l0.6,6.8c7.2-0.5,14.1-3.9,18.6-7.8L30.4,4.3z"/>
</svg>
