<?xml version="1.0" encoding="utf-8"?>
<!-- Generator: Adobe Illustrator 25.4.1, SVG Export Plug-In . SVG Version: 6.00 Build 0)  -->
<svg version="1.1" xmlns="http://www.w3.org/2000/svg" xmlns:xlink="http://www.w3.org/1999/xlink" x="0px" y="0px"
	 viewBox="0 0 82.12 31.63" style="enable-background:new 0 0 82.12 31.63;" xml:space="preserve">
<style type="text/css">
	.sprucebot0{fill:url(#sprucebot_1_);}
</style>
<g>
	<g>
		<path d="M6.11,28.11c-4.4,0-6.11-2.97-6.11-6.17c0-3.5,2.19-7.22,5.69-7.22c2.37,0,3.45,2.14,3.45,4.3c0,2.26-1.11,4.45-3.15,4.45
			c-0.58,0-1.03-0.25-1.23-0.58c1.11-1.11,1.99-3.3,1.99-5.06c0-0.96-0.3-1.76-0.96-2.11c-1.71,0.43-3.07,3.5-3.07,6.42
			c0,2.37,1.01,4.58,3.55,4.93c2.49-0.55,4.28-3.9,4.28-6.44c0-5.49-3.07-7.77-3.07-12.76c0-3.4,2.26-5.31,4.3-5.31
			c2.87,0,4.18,1.74,4.53,3.65c-0.03-0.55-0.05-1.16-0.05-1.76c0-2.21,0.28-4.45,1.86-4.45c0.73,0,1.51,0.5,1.79,1.41
			c-2.16,1.16-2.74,3.52-3.32,5.71c-0.2,0.78-0.43,1.56-0.71,2.26c-0.53,1.26-1.46,2.06-2.34,2.06c-0.4,0-0.78-0.15-1.11-0.48
			c1.03-1.16,1.58-2.77,1.61-4.23c0-1.46-0.5-2.74-1.56-3.35c-1.31,0.05-2.44,1.61-2.44,3.88c0,4.6,3.07,7.4,3.07,12.88
			C13.11,24.23,10.62,28.11,6.11,28.11z"/>
		<path d="M11.28,30.72c0-1.76,3.42-10.67,4.3-13.01c0.98-2.62,3.12-8.18,3.5-9.46c1.23,0.03,1.66,0.2,1.66,0.86
			c0,0.81-1.56,4.4-2.14,6.11c1.41-3.02,2.67-4.48,3.65-4.48c0.88,0,2.01,0.93,2.01,2.09c0,2.79-1.61,7.72-3.62,9.91
			c1.38-0.65,4.96-5.48,6.97-10.47c0.33-0.05,0.53,0.03,0.53,0.38c0,1.21-3.1,11.17-9.44,11.17c-1.08,0-1.74-0.65-2.29-1.76
			c-1.01,2.59-2.14,5.76-3.45,9.56C11.85,31.68,11.28,31.38,11.28,30.72z M20.81,17.14c0.83-2.21,1.43-4.48,1.31-5.16
			c-1.28,0.18-2.89,2.84-5.41,9.31c0.53,0.78,0.91,1.06,1.28,1.06C18.65,22.34,19.23,21.39,20.81,17.14z"/>
		<path d="M25.37,21.82c0-1.23,3.6-7.05,3.6-7.83c0-0.35-0.23-0.5-0.53-0.7c-0.91-0.58-1.13-1.11-1.13-2.19
			c0-2.67,1.03-3.75,1.99-3.75c0.48,0,0.96,0.25,1.23,0.73c-0.55,0.78-1.21,1.79-2.04,3.42c-0.13,0.25-0.18,0.4-0.18,0.63
			c0,0.2,0.08,0.33,0.23,0.38c1.86,0.6,2.47,0.6,2.47,1.76c0,0.81-0.98,2.89-1.89,4.83c-0.73,1.56-1.38,3.04-1.43,3.72
			c2.11-1.01,4.76-5.74,6.34-9.56c0.18-0.02,0.2,0.03,0.2,0.15c0,1.26-3.97,10.42-7.04,10.42C26.2,23.83,25.37,22.87,25.37,21.82z"
			/>
		<path d="M32.89,23.9c-0.8,0-1.96-0.45-1.96-1.69c0-2.64,3.32-8.78,3.6-10.54c-0.45,0.13-0.8,0.18-1.08,0.18
			c-0.48,0-0.65-0.18-0.65-0.43c0-0.1,0.03-0.23,0.08-0.35c0.75,0.02,1.48-0.13,2.14-0.13c0.63,0,1.56,0.4,1.56,1.66
			c0,1.41-3.5,7.78-3.5,9.81c0,0.1,0,0.18,0.03,0.25c0.98-0.05,2.69-2.57,4.15-5.54c0.88-1.81,1.61-3.77,2.42-6.06
			c0.33-0.08,0.65-0.1,0.93-0.1c0.58,0,0.98,0.18,0.98,0.65c0,0.68-0.73,2.99-1.61,5.31c-0.93,2.39-2.06,4.83-2.37,5.79
			c2.52-1.01,4.83-5.74,6.39-9.46c0.18-0.02,0.2,0.03,0.2,0.15c0,1.26-3.85,10.42-6.82,10.42c-0.78,0-1.61-0.6-1.61-1.48
			c0-0.5,0.3-1.26,0.7-2.26C35.11,22.6,33.87,23.9,32.89,23.9z"/>
		<path d="M44.62,23.83c-1.99,0-3.52-1.18-3.52-2.92c0-2.89,1.58-7.93,3.95-9.74c0.4-0.3,1.21-0.45,1.76-0.45
			c1.48,0,2.84,0.91,2.84,2.79c0,1.61-1.11,5.13-3.02,5.13c-0.4,0-0.86-0.25-1.01-0.68c0.8-0.93,2.19-4.15,2.19-5.66
			c0-0.33-0.05-0.55-0.2-0.65c-1.31,0.08-4.03,6.19-4.03,9.26c0,0.75,0.2,1.31,0.6,1.64c3.27-0.58,6.19-5.46,7.78-9.28
			c0.18-0.02,0.2,0.03,0.2,0.15C52.17,14.67,47.99,23.83,44.62,23.83z"/>
		<path d="M52.67,23.83h-0.02c-1.96,0-3.55-1.16-3.55-2.89c0-2.54,1.43-6.72,3.4-8.93c0.65-0.75,1.48-1.28,2.64-1.28
			c1.28,0,2.69,0.63,2.69,2.47c0,2.11-2.57,7.22-5.66,7.22c-0.23,0-0.45-0.02-0.7-0.1c-0.03,0.28-0.05,0.53-0.05,0.75
			c0,0.81,0.3,1.33,0.98,1.58c3.12-0.43,6.04-5.54,7.62-9.39c0.18-0.02,0.2,0.03,0.2,0.15C60.22,14.67,56.09,23.83,52.67,23.83z
			 M51.62,19.6c2.26-0.38,4.48-5.51,4.48-7.35c0-0.28-0.05-0.48-0.18-0.58C54.74,11.75,52.32,16.51,51.62,19.6z"/>
		<path d="M57.48,20.76c0-1.91,0.73-4.86,1.84-7.93c1.89-5.21,4.33-10.27,7.68-10.27c1.38,0,2.09,0.86,2.09,1.74
			c0,2.47-4.68,11.47-8.68,12.63c-0.4,1.53-0.65,2.87-0.68,3.95c-0.02,0.78,0.1,1.38,0.38,1.79c1.06-0.53,2.52-2.37,2.52-4.4
			c0-0.53-0.15-1.01-0.35-1.38c0.18-0.2,0.43-0.3,0.73-0.3c0.55,0,1.26,0.35,1.64,0.93c1.21-0.48,2.47-1.43,3.62-4.25
			c0.13,0,0.2,0.08,0.2,0.35c0,1.56-1.81,3.98-3.57,4.73c0,2.84-2.59,5.46-4.68,5.48C59.01,23.83,57.48,23.12,57.48,20.76z
			 M60.73,15.88c2.42-2.01,6.29-9.16,6.34-11.75c0-0.38-0.08-0.68-0.2-0.75c-2.19,0.91-3.83,5.84-5.46,10.47
			C61.15,14.54,60.93,15.22,60.73,15.88z"/>
		<path d="M68.55,23.8c-1.61,0-3.02-1.08-3.02-3.15c0-2.31,1.11-5.46,2.67-7.72c0.28-0.43,0.63-0.91,1.03-0.91
			c0.1,0,0.23,0.03,0.35,0.1c0.48-0.83,1.23-1.36,2.39-1.36c1.36,0,2.79,1.01,2.79,2.69c0,1.66-1.13,4.88-2.57,7.35
			c1.91-0.93,3.72-4.4,5.33-8.53c0.3-0.05,0.53,0,0.53,0.4c0,1.46-2.49,8.83-5.84,8.83c-0.15,0-0.3,0-0.43-0.02
			c-0.1,0.15-0.23,0.33-0.33,0.48C70.54,23.3,69.41,23.8,68.55,23.8z M70.09,20.51c-0.8-0.98-1.13-2.57-1.18-4.13
			c-0.68,1.71-1.11,3.5-1.11,4.76c0,0.88,0.23,1.51,0.75,1.69C68.96,22.44,69.53,21.59,70.09,20.51z M70.52,19.63
			c0.98-2.09,1.86-4.73,1.86-6.62c0-0.58-0.18-1.21-0.93-1.46c-0.91,0.55-1.71,2.87-1.71,5.03C69.74,17.71,69.96,18.82,70.52,19.63z
			"/>
		<path d="M74.14,21.84c0-1.41,1.81-6.24,3.32-9.91c-0.5-0.02-0.96-0.08-1.33-0.13c-0.02-0.1-0.02-0.13-0.02-0.2
			c0-0.25,0.1-0.48,0.45-0.5c0.4-0.02,0.83-0.02,1.26-0.02c0.6-1.43,1.11-2.62,1.38-3.17c1.41-0.05,1.89,0.4,1.89,0.98
			c0,0.4-0.4,1.33-0.8,2.19c0.6,0,1.18,0.02,1.74,0.02c0.08,0.13,0.1,0.23,0.1,0.3c0,0.4-0.7,0.55-2.21,0.6
			c-0.86,2.11-1.84,4.68-3.04,8c-0.25,0.73-0.38,1.28-0.38,1.69c-0.03,0.45,0.1,0.73,0.3,0.93c1.01-0.53,1.91-1.79,2.59-2.99
			c0.2-0.03,0.35,0.02,0.35,0.28c0,1.08-1.96,3.93-3.47,3.93C75.22,23.83,74.14,22.97,74.14,21.84z"/>
	</g>
	<g>
		<linearGradient id="sprucebot_1_" gradientUnits="userSpaceOnUse" x1="5.7237" y1="7.7686" x2="83.0606" y2="28.9206">
			<stop  offset="0" style="stop-color:#514B9F"/>
			<stop  offset="1" style="stop-color:#32C2D9"/>
		</linearGradient>
		<path class="sprucebot0" d="M6.11,28.11c-4.4,0-6.11-2.97-6.11-6.17c0-3.5,2.19-7.22,5.69-7.22c2.37,0,3.45,2.14,3.45,4.3
			c0,2.26-1.11,4.45-3.15,4.45c-0.58,0-1.03-0.25-1.23-0.58c1.11-1.11,1.99-3.3,1.99-5.06c0-0.96-0.3-1.76-0.96-2.11
			c-1.71,0.43-3.07,3.5-3.07,6.42c0,2.37,1.01,4.58,3.55,4.93c2.49-0.55,4.28-3.9,4.28-6.44c0-5.49-3.07-7.77-3.07-12.76
			c0-3.4,2.26-5.31,4.3-5.31c2.87,0,4.18,1.74,4.53,3.65c-0.03-0.55-0.05-1.16-0.05-1.76c0-2.21,0.28-4.45,1.86-4.45
			c0.73,0,1.51,0.5,1.79,1.41c-2.16,1.16-2.74,3.52-3.32,5.71c-0.2,0.78-0.43,1.56-0.71,2.26c-0.53,1.26-1.46,2.06-2.34,2.06
			c-0.4,0-0.78-0.15-1.11-0.48c1.03-1.16,1.58-2.77,1.61-4.23c0-1.46-0.5-2.74-1.56-3.35c-1.31,0.05-2.44,1.61-2.44,3.88
			c0,4.6,3.07,7.4,3.07,12.88C13.11,24.23,10.62,28.11,6.11,28.11z"/>
		
			<linearGradient id="sprucebot_00000118374757403324058900000004585036446589076905_" gradientUnits="userSpaceOnUse" x1="5.7237" y1="7.7686" x2="83.0606" y2="28.9206">
			<stop  offset="0" style="stop-color:#514B9F"/>
			<stop  offset="1" style="stop-color:#32C2D9"/>
		</linearGradient>
		<path style="fill:url(#sprucebot_00000118374757403324058900000004585036446589076905_);" d="M11.28,30.72
			c0-1.76,3.42-10.67,4.3-13.01c0.98-2.62,3.12-8.18,3.5-9.46c1.23,0.03,1.66,0.2,1.66,0.86c0,0.81-1.56,4.4-2.14,6.11
			c1.41-3.02,2.67-4.48,3.65-4.48c0.88,0,2.01,0.93,2.01,2.09c0,2.79-1.61,7.72-3.62,9.91c1.38-0.65,4.96-5.48,6.97-10.47
			c0.33-0.05,0.53,0.03,0.53,0.38c0,1.21-3.1,11.17-9.44,11.17c-1.08,0-1.74-0.65-2.29-1.76c-1.01,2.59-2.14,5.76-3.45,9.56
			C11.85,31.68,11.28,31.38,11.28,30.72z M20.81,17.14c0.83-2.21,1.43-4.48,1.31-5.16c-1.28,0.18-2.89,2.84-5.41,9.31
			c0.53,0.78,0.91,1.06,1.28,1.06C18.65,22.34,19.23,21.39,20.81,17.14z"/>
		
			<linearGradient id="sprucebot_00000182491946470235290280000016624223301935332743_" gradientUnits="userSpaceOnUse" x1="5.7237" y1="7.7686" x2="83.0606" y2="28.9206">
			<stop  offset="0" style="stop-color:#514B9F"/>
			<stop  offset="1" style="stop-color:#32C2D9"/>
		</linearGradient>
		<path style="fill:url(#sprucebot_00000182491946470235290280000016624223301935332743_);" d="M25.37,21.82c0-1.23,3.6-7.05,3.6-7.83
			c0-0.35-0.23-0.5-0.53-0.7c-0.91-0.58-1.13-1.11-1.13-2.19c0-2.67,1.03-3.75,1.99-3.75c0.48,0,0.96,0.25,1.23,0.73
			c-0.55,0.78-1.21,1.79-2.04,3.42c-0.13,0.25-0.18,0.4-0.18,0.63c0,0.2,0.08,0.33,0.23,0.38c1.86,0.6,2.47,0.6,2.47,1.76
			c0,0.81-0.98,2.89-1.89,4.83c-0.73,1.56-1.38,3.04-1.43,3.72c2.11-1.01,4.76-5.74,6.34-9.56c0.18-0.02,0.2,0.03,0.2,0.15
			c0,1.26-3.97,10.42-7.04,10.42C26.2,23.83,25.37,22.87,25.37,21.82z"/>
		
			<linearGradient id="sprucebot_00000170242911552920108360000005882644422441460410_" gradientUnits="userSpaceOnUse" x1="5.7237" y1="7.7686" x2="83.0606" y2="28.9206">
			<stop  offset="0" style="stop-color:#514B9F"/>
			<stop  offset="1" style="stop-color:#32C2D9"/>
		</linearGradient>
		<path style="fill:url(#sprucebot_00000170242911552920108360000005882644422441460410_);" d="M32.89,23.9c-0.8,0-1.96-0.45-1.96-1.69
			c0-2.64,3.32-8.78,3.6-10.54c-0.45,0.13-0.8,0.18-1.08,0.18c-0.48,0-0.65-0.18-0.65-0.43c0-0.1,0.03-0.23,0.08-0.35
			c0.75,0.02,1.48-0.13,2.14-0.13c0.63,0,1.56,0.4,1.56,1.66c0,1.41-3.5,7.78-3.5,9.81c0,0.1,0,0.18,0.03,0.25
			c0.98-0.05,2.69-2.57,4.15-5.54c0.88-1.81,1.61-3.77,2.42-6.06c0.33-0.08,0.65-0.1,0.93-0.1c0.58,0,0.98,0.18,0.98,0.65
			c0,0.68-0.73,2.99-1.61,5.31c-0.93,2.39-2.06,4.83-2.37,5.79c2.52-1.01,4.83-5.74,6.39-9.46c0.18-0.02,0.2,0.03,0.2,0.15
			c0,1.26-3.85,10.42-6.82,10.42c-0.78,0-1.61-0.6-1.61-1.48c0-0.5,0.3-1.26,0.7-2.26C35.11,22.6,33.87,23.9,32.89,23.9z"/>
		
			<linearGradient id="sprucebot_00000066480552130461203870000013334406401596041867_" gradientUnits="userSpaceOnUse" x1="5.7237" y1="7.7686" x2="83.0606" y2="28.9206">
			<stop  offset="0" style="stop-color:#514B9F"/>
			<stop  offset="1" style="stop-color:#32C2D9"/>
		</linearGradient>
		<path style="fill:url(#sprucebot_00000066480552130461203870000013334406401596041867_);" d="M44.62,23.83
			c-1.99,0-3.52-1.18-3.52-2.92c0-2.89,1.58-7.93,3.95-9.74c0.4-0.3,1.21-0.45,1.76-0.45c1.48,0,2.84,0.91,2.84,2.79
			c0,1.61-1.11,5.13-3.02,5.13c-0.4,0-0.86-0.25-1.01-0.68c0.8-0.93,2.19-4.15,2.19-5.66c0-0.33-0.05-0.55-0.2-0.65
			c-1.31,0.08-4.03,6.19-4.03,9.26c0,0.75,0.2,1.31,0.6,1.64c3.27-0.58,6.19-5.46,7.78-9.28c0.18-0.02,0.2,0.03,0.2,0.15
			C52.17,14.67,47.99,23.83,44.62,23.83z"/>
		
			<linearGradient id="sprucebot_00000094617780096310186890000001790096830871987363_" gradientUnits="userSpaceOnUse" x1="5.7237" y1="7.7686" x2="83.0606" y2="28.9206">
			<stop  offset="0" style="stop-color:#514B9F"/>
			<stop  offset="1" style="stop-color:#32C2D9"/>
		</linearGradient>
		<path style="fill:url(#sprucebot_00000094617780096310186890000001790096830871987363_);" d="M52.67,23.83h-0.02
			c-1.96,0-3.55-1.16-3.55-2.89c0-2.54,1.43-6.72,3.4-8.93c0.65-0.75,1.48-1.28,2.64-1.28c1.28,0,2.69,0.63,2.69,2.47
			c0,2.11-2.57,7.22-5.66,7.22c-0.23,0-0.45-0.02-0.7-0.1c-0.03,0.28-0.05,0.53-0.05,0.75c0,0.81,0.3,1.33,0.98,1.58
			c3.12-0.43,6.04-5.54,7.62-9.39c0.18-0.02,0.2,0.03,0.2,0.15C60.22,14.67,56.09,23.83,52.67,23.83z M51.62,19.6
			c2.26-0.38,4.48-5.51,4.48-7.35c0-0.28-0.05-0.48-0.18-0.58C54.74,11.75,52.32,16.51,51.62,19.6z"/>
		
			<linearGradient id="sprucebot_00000013163887891160388870000007936894307337819045_" gradientUnits="userSpaceOnUse" x1="5.7237" y1="7.7686" x2="83.0606" y2="28.9206">
			<stop  offset="0" style="stop-color:#514B9F"/>
			<stop  offset="1" style="stop-color:#32C2D9"/>
		</linearGradient>
		<path style="fill:url(#sprucebot_00000013163887891160388870000007936894307337819045_);" d="M57.48,20.76c0-1.91,0.73-4.86,1.84-7.93
			c1.89-5.21,4.33-10.27,7.68-10.27c1.38,0,2.09,0.86,2.09,1.74c0,2.47-4.68,11.47-8.68,12.63c-0.4,1.53-0.65,2.87-0.68,3.95
			c-0.02,0.78,0.1,1.38,0.38,1.79c1.06-0.53,2.52-2.37,2.52-4.4c0-0.53-0.15-1.01-0.35-1.38c0.18-0.2,0.43-0.3,0.73-0.3
			c0.55,0,1.26,0.35,1.64,0.93c1.21-0.48,2.47-1.43,3.62-4.25c0.13,0,0.2,0.08,0.2,0.35c0,1.56-1.81,3.98-3.57,4.73
			c0,2.84-2.59,5.46-4.68,5.48C59.01,23.83,57.48,23.12,57.48,20.76z M60.73,15.88c2.42-2.01,6.29-9.16,6.34-11.75
			c0-0.38-0.08-0.68-0.2-0.75c-2.19,0.91-3.83,5.84-5.46,10.47C61.15,14.54,60.93,15.22,60.73,15.88z"/>
		
			<linearGradient id="sprucebot_00000078046301342354761920000012460525614819371151_" gradientUnits="userSpaceOnUse" x1="5.7237" y1="7.7686" x2="83.0606" y2="28.9206">
			<stop  offset="0" style="stop-color:#514B9F"/>
			<stop  offset="1" style="stop-color:#32C2D9"/>
		</linearGradient>
		<path style="fill:url(#sprucebot_00000078046301342354761920000012460525614819371151_);" d="M68.55,23.8c-1.61,0-3.02-1.08-3.02-3.15
			c0-2.31,1.11-5.46,2.67-7.72c0.28-0.43,0.63-0.91,1.03-0.91c0.1,0,0.23,0.03,0.35,0.1c0.48-0.83,1.23-1.36,2.39-1.36
			c1.36,0,2.79,1.01,2.79,2.69c0,1.66-1.13,4.88-2.57,7.35c1.91-0.93,3.72-4.4,5.33-8.53c0.3-0.05,0.53,0,0.53,0.4
			c0,1.46-2.49,8.83-5.84,8.83c-0.15,0-0.3,0-0.43-0.02c-0.1,0.15-0.23,0.33-0.33,0.48C70.54,23.3,69.41,23.8,68.55,23.8z
			 M70.09,20.51c-0.8-0.98-1.13-2.57-1.18-4.13c-0.68,1.71-1.11,3.5-1.11,4.76c0,0.88,0.23,1.51,0.75,1.69
			C68.96,22.44,69.53,21.59,70.09,20.51z M70.52,19.63c0.98-2.09,1.86-4.73,1.86-6.62c0-0.58-0.18-1.21-0.93-1.46
			c-0.91,0.55-1.71,2.87-1.71,5.03C69.74,17.71,69.96,18.82,70.52,19.63z"/>
		
			<linearGradient id="sprucebot_00000060026000013020828000000000759497003049471674_" gradientUnits="userSpaceOnUse" x1="5.7237" y1="7.7686" x2="83.0606" y2="28.9206">
			<stop  offset="0" style="stop-color:#514B9F"/>
			<stop  offset="1" style="stop-color:#32C2D9"/>
		</linearGradient>
		<path style="fill:url(#sprucebot_00000060026000013020828000000000759497003049471674_);" d="M74.14,21.84c0-1.41,1.81-6.24,3.32-9.91
			c-0.5-0.02-0.96-0.08-1.33-0.13c-0.02-0.1-0.02-0.13-0.02-0.2c0-0.25,0.1-0.48,0.45-0.5c0.4-0.02,0.83-0.02,1.26-0.02
			c0.6-1.43,1.11-2.62,1.38-3.17c1.41-0.05,1.89,0.4,1.89,0.98c0,0.4-0.4,1.33-0.8,2.19c0.6,0,1.18,0.02,1.74,0.02
			c0.08,0.13,0.1,0.23,0.1,0.3c0,0.4-0.7,0.55-2.21,0.6c-0.86,2.11-1.84,4.68-3.04,8c-0.25,0.73-0.38,1.28-0.38,1.69
			c-0.03,0.45,0.1,0.73,0.3,0.93c1.01-0.53,1.91-1.79,2.59-2.99c0.2-0.03,0.35,0.02,0.35,0.28c0,1.08-1.96,3.93-3.47,3.93
			C75.22,23.83,74.14,22.97,74.14,21.84z"/>
	</g>
</g>
</svg>
