<svg width="150" height="73" viewBox="0 0 150 73" fill="none" xmlns="http://www.w3.org/2000/svg">
<path d="M14.7649 64.1717C14.7649 61.5451 13.2859 60.2956 9.91979 59.7856C9.43528 59.7091 7.47172 59.4285 6.65569 59.301C4.66664 58.995 4.23312 58.7655 4.23312 58.1535C4.23312 57.4905 4.89614 57.1335 7.14021 57.1335C9.07827 57.1335 9.81779 57.465 10.0983 57.8475C10.2258 58.026 10.2768 58.4595 10.2768 58.6125H14.2294C14.2294 58.332 14.1529 57.465 13.9744 56.9295C13.2604 54.9149 10.8378 53.9204 6.9872 53.9204C2.47357 53.9204 0.229507 55.5524 0.229507 58.0515C0.229507 60.7291 1.70855 62.0806 4.79414 62.5141C5.63566 62.6416 7.31871 62.8966 7.85423 62.9731C9.91979 63.2792 10.7613 63.4577 10.7613 64.2482C10.7613 65.0642 10.0473 65.4722 7.72673 65.4722C5.50816 65.4722 4.43713 65.2937 4.18212 64.6307C4.08012 64.3502 4.05462 64.0952 4.05462 63.9167H0C0 64.3757 0.0255007 64.7582 0.153004 65.3192C0.739522 67.6143 2.98359 68.5578 7.72673 68.5578C12.5719 68.5578 14.7649 67.0788 14.7649 64.1717ZM33.0631 61.0351C33.0631 58.8675 32.4001 57.363 31.4311 56.1134C30.411 54.7874 28.371 53.9714 26.3054 53.9714C23.6023 53.9714 21.6898 55.0934 21.1798 56.2665L21.0523 54.2774H17.0741V72.7144H21.1798V66.5688C22.1998 67.8948 24.1633 68.4048 26.2544 68.4048C28.32 68.4048 30.3855 67.5378 31.4311 66.3137C32.5021 65.0642 33.0631 63.3557 33.0631 61.0351ZM28.9065 61.2901C28.9065 62.2336 28.7025 62.9986 28.269 63.6107C27.6314 64.5032 26.5094 65.0132 24.9029 65.0132C23.6023 65.0132 22.6333 64.6307 21.9958 63.9677C21.3583 63.3302 21.0523 62.4121 21.0523 61.2901C21.0523 60.0916 21.4603 59.0715 22.2763 58.383C22.9138 57.8475 23.8063 57.5415 24.9029 57.5415C26.2799 57.5415 27.2489 57.8985 27.8865 58.485C28.6005 59.1735 28.9065 60.1426 28.9065 61.2901ZM46.5496 54.2264C45.9886 54.0734 45.1981 53.9459 44.0251 53.9459C41.934 53.9459 39.6644 55.0934 39.3329 56.547V54.2774H35.2783V68.3028H39.4349V61.5706C39.4349 59.1225 41.016 57.72 43.1835 57.72C44.6371 57.72 45.5806 57.8475 46.5496 58.1535V54.2264ZM62.5849 68.3028H58.6322L58.5302 66.3392C57.5867 67.9203 55.4956 68.5323 53.4301 68.5323C50.2425 68.5323 48.1004 67.3338 48.1004 63.9167C48.1004 55.7819 48.0749 54.3794 47.9729 54.2774C47.9729 54.2774 52.206 54.2774 52.1295 54.2774C52.206 54.2774 52.2316 60.2956 52.2316 62.8711C52.2316 64.7327 53.4811 65.3447 55.0876 65.3447C57.1277 65.3447 58.4027 64.3247 58.4027 62.6671V54.2774H62.5083C62.5083 54.2774 62.5083 63.6617 62.5083 66.1097C62.5083 67.3848 62.5593 68.1753 62.5849 68.3028ZM80.4801 59.8876C80.4801 59.148 80.3526 58.3065 79.9956 57.4905C79.1796 55.6289 77.1395 53.9459 72.6769 53.9459C70.3053 53.9459 68.0868 54.5579 66.6332 55.9859C65.4092 57.1845 64.7206 58.944 64.7206 61.2391C64.7206 63.7382 65.4347 65.6252 66.8882 66.8493C68.2653 67.9968 70.2543 68.5323 72.8299 68.5323C75.6605 68.5323 77.573 67.8183 78.7461 66.7473C79.9956 65.6507 80.4546 64.1717 80.4546 62.8711H76.5275C76.5275 63.2792 76.4 63.8147 75.9665 64.2482C75.431 64.7582 74.4619 65.1407 72.9064 65.1407C71.4018 65.1407 70.3563 64.8602 69.7188 64.2227C69.0303 63.5852 68.8263 62.5651 68.8263 61.2646C68.8263 60.0661 69.1068 59.0205 69.7698 58.3575C70.4328 57.6945 71.4529 57.414 72.8044 57.414C74.3599 57.414 75.3545 57.873 75.89 58.4595C76.298 58.893 76.4765 59.403 76.4765 59.8876H80.4801ZM97.6645 63.7382H93.6609C93.5844 64.0442 93.2274 64.5032 92.4878 64.8347C91.9013 65.0897 91.0598 65.2937 89.9123 65.2937C88.3822 65.2937 87.2347 64.8857 86.6482 64.2482C86.1637 63.7127 85.8831 63.2282 85.8831 62.5906H97.7665C97.996 60.4741 97.6135 58.4595 96.568 56.9295C95.3184 55.1189 93.1254 53.9459 89.9123 53.9459C86.8522 53.9459 84.4296 55.0934 83.0781 57.057C82.2875 58.179 81.854 59.607 81.854 61.2136C81.854 62.9731 82.2365 64.3757 82.9251 65.4722C84.2766 67.6143 86.8012 68.5323 89.9123 68.5323C92.1818 68.5323 93.8904 68.0478 95.1144 67.2573C96.517 66.3647 97.333 65.0897 97.6645 63.7382ZM93.7119 59.9131H85.8576C85.8576 59.505 86.2402 58.6635 86.7247 58.23C87.4132 57.618 88.4842 57.2355 89.9378 57.2355C91.4678 57.2355 92.4368 57.72 93.0234 58.3065C93.5334 58.842 93.7119 59.505 93.7119 59.9131Z" fill="#08090B"/>
<path d="M102.123 68.3028C102.047 68.2008 102.047 67.7163 102.047 66.9768C102.047 64.2482 102.047 50.9368 102.047 49.1262C102.047 48.5397 102.021 48.1062 101.97 47.9532H100.083C100.109 48.1572 100.134 48.7947 100.134 49.3557C100.134 51.4978 100.134 65.7527 100.134 67.5123C100.134 68.0478 100.16 68.2518 100.236 68.3028H102.123ZM117.927 68.3028C117.8 67.9458 117.672 66.4922 117.672 65.4722C117.672 64.5797 117.672 62.4886 117.698 61.5451C117.698 60.5251 117.672 58.281 117.621 57.6435C117.417 55.2464 115.708 53.9969 111.73 53.9969C109.384 53.9969 107.803 54.5324 106.706 55.7819C106.043 56.5215 105.788 57.4905 105.712 58.6635H107.523C107.523 57.7965 107.752 57.1845 108.364 56.598C109.053 55.9094 110.149 55.6799 111.756 55.6799C114.535 55.6799 115.708 56.4194 115.81 58.1025C115.861 58.638 115.861 59.709 115.861 60.0916C114.357 59.9385 113.031 59.8875 111.781 59.913C106.808 60.0151 105.074 61.9276 105.023 64.1462C105.023 64.3502 105.023 64.6562 105.023 64.7837C105.074 67.0533 106.885 68.4558 110.302 68.4558C113.617 68.4558 115.147 67.4868 115.887 66.2882C115.836 67.0533 116.04 68.3028 116.116 68.3028H117.927ZM115.887 61.5196C115.887 61.8001 115.887 62.8966 115.836 63.1771C115.759 64.4522 115.3 65.2427 114.51 65.9057C113.719 66.5687 112.393 66.8748 110.838 66.8748C109.257 66.8748 108.16 66.5177 107.548 65.9057C107.089 65.4467 106.936 64.9622 106.936 64.2737C106.936 63.5086 107.216 62.8456 107.803 62.4121C108.747 61.7236 110.251 61.3921 112.444 61.3411C113.515 61.3156 114.663 61.3921 115.887 61.5196ZM128.264 53.9969C125.561 53.9969 123.597 55.2464 123.164 56.5725V47.9787H121.277V68.3028H123.036L123.164 66.1352C124.133 67.8183 126.173 68.4303 128.29 68.4303C130.406 68.4303 132.064 67.8438 133.084 66.7472C134.231 65.5232 134.971 63.8402 134.971 61.0861C134.971 58.587 134.308 56.904 133.237 55.7564C132.115 54.5579 130.559 53.9969 128.264 53.9969ZM128.035 55.7309C129.922 55.7309 131.171 56.2154 132.038 57.312C132.778 58.2555 133.058 59.505 133.058 61.2136C133.058 63.2026 132.676 64.5032 131.885 65.3702C131.069 66.2882 129.743 66.7727 127.907 66.7727C125.306 66.7727 123.954 65.4722 123.419 64.0952C123.24 63.5342 123.113 63.0751 123.113 61.5706C123.113 60.1936 123.189 59.607 123.342 58.842C123.776 57.108 125.23 55.7309 128.035 55.7309ZM150 64.4522C150 58.5105 139.443 61.5961 139.443 57.72C139.443 56.4959 140.386 55.6544 143.37 55.6544C147.348 55.6544 147.603 56.9295 147.603 58.3575H149.49C149.49 55.2974 147.475 53.9714 143.319 53.9714C139.392 53.9714 137.556 55.4759 137.556 57.618C137.556 63.6872 148.113 60.3721 148.113 64.5287C148.113 66.0587 147.042 66.9003 143.803 66.9003C140.131 66.9003 139.188 66.2117 139.188 64.2227H137.301C137.301 67.3848 138.729 68.5323 143.752 68.5323C148.189 68.5323 150 67.1553 150 64.4522Z" fill="#08090B"/>
<path d="M75.6607 0L53.1129 32.1896C57.8387 36.4031 65.1081 39.9144 72.6999 40.4838L73.3072 33.2904C69.9098 32.9868 66.6264 31.9808 63.6276 30.4435L75.6607 13.2669L87.694 30.4435C84.6951 31.9808 81.4116 32.9868 78.0142 33.2904L78.6216 40.4838C86.2135 39.9144 93.4827 36.4031 98.2087 32.1896L75.6607 0Z" fill="white"/>
</svg>
