<svg width="30" height="25" viewBox="0 0 30 25" fill="none" xmlns="http://www.w3.org/2000/svg">
<path fill-rule="evenodd" clip-rule="evenodd" d="M20.5 0C18.0147 0 16 2.01472 16 4.5V9.5C16 10.2646 16.1907 10.9847 16.5271 11.6152C17.74 10.6066 19.2992 10 21 10L25 10C26.7008 10 28.26 10.6066 29.4729 11.6152C29.8093 10.9847 30 10.2646 30 9.5V4.5C30 2.01472 27.9853 0 25.5 0H20.5Z" fill="#08090B"/>
<path fill-rule="evenodd" clip-rule="evenodd" d="M4.5 0C2.01472 0 0 2.01472 0 4.5V9.5C0 10.2646 0.190693 10.9847 0.527114 11.6152C1.74004 10.6066 3.29919 10 5 10L9 10C10.7008 10 12.26 10.6066 13.4729 11.6152C13.8093 10.9847 14 10.2646 14 9.5V4.5C14 2.01472 11.9853 0 9.5 0H4.5Z" fill="#08090B"/>
<path d="M1.5 19.3328C5.33333 22.4994 16.2 26.9328 29 19.3328" stroke="black" stroke-width="2"/>
</svg>
